<svg width="832" height="96" viewBox="0 0 832 96" fill="none" xmlns="http://www.w3.org/2000/svg">
<g filter="url(#filter0_d_376_138)">
<rect width="824" height="88" rx="20" fill="#E1B1A0"/>
<rect x="0.5" y="0.5" width="823" height="87" rx="19.5" stroke="black"/>
</g>
<line x1="732.5" y1="11" x2="732.5" y2="77" stroke="black" stroke-width="3"/>
<path d="M202.318 57L195.75 33.7273L200.284 33.7273L204.477 50.8295L204.693 50.8295L209.17 33.7273L213.295 33.7273L217.784 50.8409L217.989 50.8409L222.182 33.7273L226.716 33.7273L220.148 57L215.989 57L211.33 40.6705L211.148 40.6705L206.477 57L202.318 57ZM229.639 57L229.639 33.7273L233.855 33.7273L233.855 43.5795L244.639 43.5795L244.639 33.7273L248.866 33.7273L248.866 57L244.639 57L244.639 47.1136L233.855 47.1136L233.855 57L229.639 57ZM253.452 57L253.452 33.7273L268.588 33.7273L268.588 37.2614L257.668 37.2614L257.668 43.5795L267.804 43.5795L267.804 47.1136L257.668 47.1136L257.668 53.4659L268.679 53.4659L268.679 57L253.452 57ZM292.014 33.7273L292.014 57L288.264 57L277.298 41.1477L277.105 41.1477L277.105 57L272.889 57L272.889 33.7273L276.662 33.7273L287.616 49.5909L287.821 49.5909L287.821 33.7273L292.014 33.7273ZM307.534 57L303.034 57L311.227 33.7273L316.432 33.7273L324.636 57L320.136 57L313.92 38.5L313.739 38.5L307.534 57ZM307.682 47.875L319.955 47.875L319.955 51.2614L307.682 51.2614L307.682 47.875ZM327.702 57L327.702 33.7273L336.429 33.7273C338.217 33.7273 339.717 34.0379 340.929 34.6591C342.149 35.2803 343.069 36.1515 343.69 37.2727C344.319 38.3864 344.634 39.6856 344.634 41.1705C344.634 42.6629 344.315 43.9583 343.679 45.0568C343.05 46.1477 342.122 46.9924 340.895 47.5909C339.668 48.1818 338.16 48.4773 336.372 48.4773L330.156 48.4773L330.156 44.9773L335.804 44.9773C336.849 44.9773 337.705 44.8333 338.372 44.5455C339.039 44.25 339.531 43.822 339.849 43.2614C340.175 42.6932 340.338 41.9962 340.338 41.1705C340.338 40.3447 340.175 39.6402 339.849 39.0568C339.524 38.4659 339.027 38.0189 338.361 37.7159C337.694 37.4053 336.834 37.25 335.781 37.25L331.918 37.25L331.918 57L327.702 57ZM339.724 46.4545L345.486 57L340.781 57L335.122 46.4545L339.724 46.4545ZM348.514 57L348.514 33.7273L363.651 33.7273L363.651 37.2614L352.73 37.2614L352.73 43.5795L362.866 43.5795L362.866 47.1136L352.73 47.1136L352.73 53.4659L363.741 53.4659L363.741 57L348.514 57ZM374.298 33.7273L379.06 33.7273L384.753 44.0227L384.98 44.0227L390.673 33.7273L395.435 33.7273L386.969 48.3182L386.969 57L382.764 57L382.764 48.3182L374.298 33.7273ZM417.903 45.3636C417.903 47.8712 417.434 50.0189 416.494 51.8068C415.563 53.5871 414.29 54.9508 412.676 55.8977C411.07 56.8447 409.248 57.3182 407.21 57.3182C405.172 57.3182 403.347 56.8447 401.733 55.8977C400.127 54.9432 398.854 53.5758 397.915 51.7955C396.983 50.0076 396.517 47.8636 396.517 45.3636C396.517 42.8561 396.983 40.7121 397.915 38.9318C398.854 37.1439 400.127 35.7765 401.733 34.8295C403.347 33.8826 405.172 33.4091 407.21 33.4091C409.248 33.4091 411.07 33.8826 412.676 34.8295C414.29 35.7765 415.563 37.1439 416.494 38.9318C417.434 40.7121 417.903 42.8561 417.903 45.3636ZM413.665 45.3636C413.665 43.5985 413.388 42.1098 412.835 40.8977C412.29 39.678 411.532 38.7576 410.562 38.1364C409.593 37.5076 408.475 37.1932 407.21 37.1932C405.945 37.1932 404.828 37.5076 403.858 38.1364C402.888 38.7576 402.127 39.678 401.574 40.8977C401.028 42.1098 400.756 43.5985 400.756 45.3636C400.756 47.1288 401.028 48.6212 401.574 49.8409C402.127 51.053 402.888 51.9735 403.858 52.6023C404.828 53.2235 405.945 53.5341 407.21 53.5341C408.475 53.5341 409.593 53.2235 410.562 52.6023C411.532 51.9735 412.29 51.053 412.835 49.8409C413.388 48.6212 413.665 47.1288 413.665 45.3636ZM436.56 33.7273L440.776 33.7273L440.776 48.9318C440.776 50.5985 440.382 52.0644 439.594 53.3295C438.813 54.5947 437.715 55.5833 436.298 56.2955C434.882 57 433.226 57.3523 431.332 57.3523C429.431 57.3523 427.772 57 426.355 56.2955C424.938 55.5833 423.84 54.5947 423.06 53.3295C422.279 52.0644 421.889 50.5985 421.889 48.9318L421.889 33.7273L426.105 33.7273L426.105 48.5795C426.105 49.5492 426.317 50.4129 426.741 51.1705C427.173 51.928 427.779 52.5227 428.56 52.9545C429.34 53.3788 430.264 53.5909 431.332 53.5909C432.401 53.5909 433.325 53.3788 434.105 52.9545C434.893 52.5227 435.499 51.928 435.923 51.1705C436.348 50.4129 436.56 49.5492 436.56 48.5795L436.56 33.7273ZM468.886 41.1591C468.697 40.5455 468.436 39.9962 468.102 39.5114C467.777 39.0189 467.383 38.5985 466.92 38.25C466.466 37.9015 465.943 37.6402 465.352 37.4659C464.761 37.2841 464.117 37.1932 463.42 37.1932C462.17 37.1932 461.057 37.5076 460.08 38.1364C459.102 38.7652 458.333 39.6894 457.773 40.9091C457.22 42.1212 456.943 43.5985 456.943 45.3409C456.943 47.0985 457.22 48.5871 457.773 49.8068C458.326 51.0265 459.095 51.9545 460.08 52.5909C461.064 53.2197 462.208 53.5341 463.511 53.5341C464.693 53.5341 465.716 53.3068 466.58 52.8523C467.451 52.3977 468.121 51.7538 468.591 50.9205C469.061 50.0795 469.295 49.0947 469.295 47.9659L470.25 48.1136L463.932 48.1136L463.932 44.8182L473.375 44.8182L473.375 47.6136C473.375 49.6061 472.951 51.3295 472.102 52.7841C471.254 54.2386 470.087 55.3598 468.602 56.1477C467.117 56.928 465.413 57.3182 463.489 57.3182C461.345 57.3182 459.462 56.8371 457.841 55.875C456.227 54.9053 454.966 53.5303 454.057 51.75C453.155 49.9621 452.705 47.8409 452.705 45.3864C452.705 43.5076 452.97 41.8295 453.5 40.3523C454.038 38.875 454.788 37.6212 455.75 36.5909C456.712 35.553 457.841 34.7652 459.136 34.2273C460.432 33.6818 461.841 33.4091 463.364 33.4091C464.652 33.4091 465.852 33.5985 466.966 33.9773C468.08 34.3485 469.068 34.8788 469.932 35.5682C470.803 36.2576 471.519 37.0758 472.08 38.0227C472.64 38.9697 473.008 40.0152 473.182 41.1591L468.886 41.1591ZM498.247 45.3636C498.247 47.8712 497.777 50.0189 496.838 51.8068C495.906 53.5871 494.634 54.9508 493.02 55.8977C491.414 56.8447 489.592 57.3182 487.554 57.3182C485.516 57.3182 483.69 56.8447 482.077 55.8977C480.471 54.9432 479.198 53.5758 478.259 51.7955C477.327 50.0076 476.861 47.8636 476.861 45.3636C476.861 42.8561 477.327 40.7121 478.259 38.9318C479.198 37.1439 480.471 35.7765 482.077 34.8295C483.69 33.8826 485.516 33.4091 487.554 33.4091C489.592 33.4091 491.414 33.8826 493.02 34.8295C494.634 35.7765 495.906 37.1439 496.838 38.9318C497.777 40.7121 498.247 42.8561 498.247 45.3636ZM494.009 45.3636C494.009 43.5985 493.732 42.1098 493.179 40.8977C492.634 39.678 491.876 38.7576 490.906 38.1364C489.937 37.5076 488.819 37.1932 487.554 37.1932C486.289 37.1932 485.171 37.5076 484.202 38.1364C483.232 38.7576 482.471 39.678 481.918 40.8977C481.372 42.1098 481.099 43.5985 481.099 45.3636C481.099 47.1288 481.372 48.6212 481.918 49.8409C482.471 51.053 483.232 51.9735 484.202 52.6023C485.171 53.2235 486.289 53.5341 487.554 53.5341C488.819 53.5341 489.937 53.2235 490.906 52.6023C491.876 51.9735 492.634 51.053 493.179 49.8409C493.732 48.6212 494.009 47.1288 494.009 45.3636ZM506.449 33.7273L506.449 57L502.233 57L502.233 33.7273L506.449 33.7273ZM530.139 33.7273L530.139 57L526.389 57L515.423 41.1477L515.23 41.1477L515.23 57L511.014 57L511.014 33.7273L514.787 33.7273L525.741 49.5909L525.946 49.5909L525.946 33.7273L530.139 33.7273ZM550.324 41.1591C550.134 40.5455 549.873 39.9962 549.54 39.5114C549.214 39.0189 548.82 38.5985 548.358 38.25C547.903 37.9015 547.381 37.6402 546.79 37.4659C546.199 37.2841 545.555 37.1932 544.858 37.1932C543.608 37.1932 542.494 37.5076 541.517 38.1364C540.54 38.7652 539.771 39.6894 539.21 40.9091C538.657 42.1212 538.381 43.5985 538.381 45.3409C538.381 47.0985 538.657 48.5871 539.21 49.8068C539.763 51.0265 540.532 51.9545 541.517 52.5909C542.502 53.2197 543.646 53.5341 544.949 53.5341C546.131 53.5341 547.153 53.3068 548.017 52.8523C548.888 52.3977 549.559 51.7538 550.028 50.9205C550.498 50.0795 550.733 49.0947 550.733 47.9659L551.687 48.1136L545.369 48.1136L545.369 44.8182L554.812 44.8182L554.812 47.6136C554.812 49.6061 554.388 51.3295 553.54 52.7841C552.691 54.2386 551.525 55.3598 550.04 56.1477C548.555 56.928 546.85 57.3182 544.926 57.3182C542.782 57.3182 540.9 56.8371 539.278 55.875C537.665 54.9053 536.403 53.5303 535.494 51.75C534.593 49.9621 534.142 47.8409 534.142 45.3864C534.142 43.5076 534.407 41.8295 534.937 40.3523C535.475 38.875 536.225 37.6212 537.187 36.5909C538.15 35.553 539.278 34.7652 540.574 34.2273C541.869 33.6818 543.278 33.4091 544.801 33.4091C546.089 33.4091 547.29 33.5985 548.403 33.9773C549.517 34.3485 550.506 34.8788 551.369 35.5682C552.241 36.2576 552.956 37.0758 553.517 38.0227C554.078 38.9697 554.445 40.0152 554.619 41.1591L550.324 41.1591ZM562.639 50.1591L562.639 49.8636C562.647 48.4924 562.776 47.4015 563.026 46.5909C563.283 45.7803 563.647 45.1288 564.116 44.6364C564.586 44.1364 565.158 43.678 565.832 43.2614C566.295 42.9735 566.707 42.6591 567.071 42.3182C567.442 41.9697 567.734 41.5833 567.946 41.1591C568.158 40.7273 568.264 40.2462 568.264 39.7159C568.264 39.1174 568.124 38.5985 567.844 38.1591C567.563 37.7197 567.185 37.3788 566.707 37.1364C566.238 36.8939 565.711 36.7727 565.128 36.7727C564.59 36.7727 564.079 36.8902 563.594 37.125C563.116 37.3523 562.719 37.7008 562.401 38.1705C562.09 38.6326 561.916 39.2197 561.878 39.9318L557.832 39.9318C557.87 38.4924 558.219 37.2879 558.878 36.3182C559.545 35.3485 560.423 34.6212 561.514 34.1364C562.613 33.6515 563.825 33.4091 565.151 33.4091C566.598 33.4091 567.87 33.6629 568.969 34.1705C570.075 34.678 570.935 35.4015 571.548 36.3409C572.17 37.2727 572.48 38.3788 572.48 39.6591C572.48 40.5227 572.34 41.2955 572.06 41.9773C571.787 42.6591 571.397 43.2652 570.889 43.7955C570.382 44.3258 569.779 44.7992 569.082 45.2159C568.469 45.5947 567.965 45.9886 567.571 46.3977C567.185 46.8068 566.897 47.2879 566.707 47.8409C566.526 48.3864 566.431 49.0606 566.423 49.8636L566.423 50.1591L562.639 50.1591ZM564.616 57.25C563.935 57.25 563.348 57.0076 562.855 56.5227C562.363 56.0379 562.116 55.447 562.116 54.75C562.116 54.0682 562.363 53.4848 562.855 53C563.348 52.5152 563.935 52.2727 564.616 52.2727C565.291 52.2727 565.874 52.5152 566.366 53C566.866 53.4848 567.116 54.0682 567.116 54.75C567.116 55.2121 566.999 55.6326 566.764 56.0114C566.537 56.3902 566.234 56.6932 565.855 56.9205C565.484 57.1402 565.071 57.25 564.616 57.25Z" fill="white"/>
<path d="M778.939 51.5607C779.525 52.1464 780.475 52.1464 781.061 51.5607L790.607 42.0147C791.192 41.4289 791.192 40.4792 790.607 39.8934C790.021 39.3076 789.071 39.3076 788.485 39.8934L780 48.3787L771.515 39.8934C770.929 39.3076 769.979 39.3076 769.393 39.8934C768.808 40.4792 768.808 41.4289 769.393 42.0147L778.939 51.5607ZM778.5 49L778.5 50.5L781.5 50.5L781.5 49L778.5 49Z" fill="black"/>
<defs>
<filter id="filter0_d_376_138" x="0" y="0" width="832" height="96" filterUnits="userSpaceOnUse" color-interpolation-filters="sRGB">
<feFlood flood-opacity="0" result="BackgroundImageFix"/>
<feColorMatrix in="SourceAlpha" type="matrix" values="0 0 0 0 0 0 0 0 0 0 0 0 0 0 0 0 0 0 127 0" result="hardAlpha"/>
<feOffset dx="4" dy="4"/>
<feGaussianBlur stdDeviation="2"/>
<feComposite in2="hardAlpha" operator="out"/>
<feColorMatrix type="matrix" values="0 0 0 0 0 0 0 0 0 0 0 0 0 0 0 0 0 0 0.3 0"/>
<feBlend mode="normal" in2="BackgroundImageFix" result="effect1_dropShadow_376_138"/>
<feBlend mode="normal" in="SourceGraphic" in2="effect1_dropShadow_376_138" result="shape"/>
</filter>
</defs>
</svg>
