<svg width="48" height="54" viewBox="0 0 48 54" fill="none" xmlns="http://www.w3.org/2000/svg">
<path d="M39 26.8966C43.9705 26.8966 48 30.5091 48 34.9655C48 40.9693 45.2461 45.7794 40.7271 49.0313C36.2794 52.232 30.3184 53.7931 24 53.7931C17.6815 53.7931 11.7205 52.232 7.27289 49.0313C2.75382 45.7794 -6.45786e-09 40.9693 -5.51151e-09 34.9655C-4.85041e-09 30.7715 3.56926 27.3245 8.13312 26.9335L8.99987 26.8966L39 26.8966ZM24 3.78304e-09C30.6274 4.8277e-09 36 4.8168 36 10.7586C36 16.7004 30.6274 21.5172 24 21.5172C17.3726 21.5172 12 16.7004 12 10.7586C12 4.8168 17.3726 2.73838e-09 24 3.78304e-09Z" fill="#212121"/>
</svg>
