<svg width="55" height="60" viewBox="0 0 55 60" fill="none" xmlns="http://www.w3.org/2000/svg">
<path d="M44.4943 30.0165C50.0384 30.0165 54.5327 34.0371 54.5328 38.9968C54.5328 45.6786 51.4613 51.032 46.4208 54.6512C41.46 58.2133 34.8112 59.9506 27.7637 59.9506C20.7162 59.9506 14.0674 58.2131 9.10653 54.6509C4.066 51.0317 0.994406 45.6783 0.994367 38.9965C0.99434 34.3288 4.97541 30.4926 10.0659 30.0574L11.0326 30.0163L44.4943 30.0165ZM27.7633 0.0821865C35.1555 0.0822294 41.148 5.44306 41.148 12.0559C41.1481 18.6688 35.1556 24.0296 27.7635 24.0296C20.3714 24.0295 14.3789 18.6687 14.3788 12.0558C14.3788 5.44291 20.3712 0.0821436 27.7633 0.0821865Z" fill="#212121"/>
</svg>
